<?xml version="1.0" encoding="utf-8"?>
<!-- Generator: Adobe Illustrator 25.0.1, SVG Export Plug-In . SVG Version: 6.00 Build 0)  -->
<svg version="1.0" id="Layer_1" xmlns="http://www.w3.org/2000/svg" xmlns:xlink="http://www.w3.org/1999/xlink" x="0px" y="0px"
	 viewBox="0 0 447.5 275.4" style="enable-background:new 0 0 447.5 275.4;" xml:space="preserve">
<style type="text/css">
	.st0{fill:#1D1D1B;}
	.st1{fill-rule:evenodd;clip-rule:evenodd;fill:url(#SVGID_1_);}
</style>
<path class="st0" d="M205.1,146.8h-29.5c0.5,2.3,1.8,4.4,3.8,5.7c2.2,1.5,4.8,2.2,7.4,2.1c1.8,0,3.7-0.3,5.4-0.9
	c1.6-0.6,3.1-1.6,4.4-2.9l6,6.5c-3.7,4.2-9,6.3-16.1,6.3c-4,0.1-8-0.8-11.6-2.6c-3.2-1.6-5.9-4.1-7.8-7.1c-1.9-3.1-2.8-6.7-2.7-10.4
	c-0.1-3.6,0.9-7.2,2.7-10.3c1.8-3,4.4-5.5,7.5-7.2c6.6-3.4,14.4-3.4,21-0.1c3,1.6,5.6,4.1,7.3,7.1c1.8,3.3,2.7,6.9,2.6,10.7
	C205.3,143.9,205.2,144.9,205.1,146.8z M178.7,134.3c-1.8,1.5-2.9,3.6-3.2,5.9h19.2c-0.3-2.3-1.4-4.4-3.2-5.9
	c-1.8-1.5-4-2.3-6.4-2.2C182.8,132,180.5,132.8,178.7,134.3z"/>
<path class="st0" d="M227.5,160.6c-4.1-2.2-7.5-5.4-9.8-9.3c-2.4-4.1-3.7-8.8-3.6-13.5c-0.1-4.7,1.2-9.4,3.6-13.5
	c2.4-4,5.8-7.2,9.8-9.3c4.3-2.3,9.2-3.4,14.1-3.4c4.1-0.1,8.1,0.7,11.9,2.3c3.5,1.5,6.6,3.8,9,6.7l-7.5,7c-3.1-3.8-7.8-6-12.7-5.9
	c-2.9,0-5.8,0.7-8.4,2.1c-2.4,1.3-4.4,3.3-5.8,5.8c-1.4,2.6-2.1,5.5-2.1,8.4c-0.1,2.9,0.7,5.8,2.1,8.4c1.3,2.4,3.3,4.4,5.8,5.8
	c2.6,1.4,5.5,2.1,8.4,2.1c4.9,0.1,9.6-2.2,12.7-6l7.5,7c-2.4,2.9-5.5,5.2-9,6.7c-3.8,1.6-7.9,2.3-12,2.2
	C236.6,164,231.8,162.9,227.5,160.6z"/>
<path class="st0" d="M302.5,127.9c3.2,2.9,4.9,7.2,4.9,13v22.2h-10.6v-4.9c-2.1,3.6-6.1,5.4-11.9,5.4c-2.7,0.1-5.3-0.5-7.8-1.5
	c-2-0.9-3.8-2.4-5-4.2c-1.2-1.8-1.8-3.9-1.7-6.1c-0.1-3.3,1.4-6.5,4.1-8.5c2.7-2.1,6.9-3.1,12.6-3.1h9c0.1-2.1-0.7-4.2-2.2-5.7
	c-1.5-1.3-3.7-2-6.7-2c-2.1,0-4.1,0.3-6.1,1c-1.8,0.6-3.6,1.5-5.1,2.6l-4.1-7.9c2.3-1.6,4.9-2.8,7.6-3.5c3-0.8,6.1-1.2,9.2-1.2
	C294.6,123.6,299.2,125,302.5,127.9z M292.8,154.7c1.5-0.9,2.6-2.3,3.2-3.9v-4h-7.7c-4.6,0-7,1.5-7,4.6c0,1.4,0.6,2.7,1.7,3.4
	c1.4,0.9,3,1.4,4.7,1.3C289.5,156.1,291.3,155.6,292.8,154.7L292.8,154.7z"/>
<path class="st0" d="M324.7,162.5c-2.6-0.6-5.1-1.6-7.4-3l3.8-8.1c2,1.2,4.1,2.1,6.3,2.7c2.4,0.7,4.8,1,7.2,1c4.8,0,7.2-1.2,7.2-3.5
	c0-1.2-0.9-2.2-2-2.4c-2-0.6-4-1-6-1.2c-2.7-0.4-5.3-0.9-7.9-1.7c-2.1-0.6-3.9-1.8-5.4-3.3c-1.5-1.6-2.3-3.9-2.3-6.8
	c0-2.4,0.8-4.7,2.2-6.5c1.6-2,3.8-3.6,6.2-4.5c3.1-1.1,6.4-1.7,9.7-1.6c2.8,0,5.5,0.3,8.2,0.9c2.4,0.5,4.7,1.3,6.8,2.5l-3.8,8
	c-3.4-1.9-7.3-2.9-11.2-2.9c-1.9-0.1-3.7,0.2-5.4,1c-1,0.5-1.8,1.5-1.8,2.6c0,1.2,0.8,2.2,2,2.5c2,0.6,4.1,1.1,6.2,1.4
	c2.6,0.4,5.2,1,7.8,1.7c2,0.6,3.9,1.7,5.3,3.3c1.6,1.8,2.4,4.2,2.2,6.7c0,2.3-0.7,4.6-2.2,6.5c-1.7,2-3.9,3.5-6.3,4.4
	c-3.2,1.1-6.5,1.6-9.9,1.6C331.1,163.7,327.9,163.3,324.7,162.5z"/>
<path class="st0" d="M398.5,127.9c3,2.9,4.5,7.2,4.5,12.9v22.3h-11.3v-20.6c0-3.1-0.7-5.4-2-6.9c-1.5-1.6-3.7-2.4-5.9-2.3
	c-2.5-0.1-5,0.8-6.8,2.6c-1.7,1.8-2.6,4.4-2.6,7.8v19.3h-11.3v-53.7h11.3v18.8c1.5-1.5,3.4-2.7,5.4-3.4c2.2-0.8,4.6-1.2,7-1.2
	C391.7,123.6,395.6,125,398.5,127.9z"/>
<linearGradient id="SVGID_1_" gradientUnits="userSpaceOnUse" x1="69.531" y1="208.2401" x2="112.261" y2="81.5901" gradientTransform="matrix(1 0 0 -1 0 276.8194)">
	<stop  offset="0" style="stop-color:#273498"/>
	<stop  offset="0.53" style="stop-color:#0074C2"/>
	<stop  offset="1" style="stop-color:#00ABE7"/>
</linearGradient>
<path class="st1" d="M69.4,120.5c6.7-3.9,13.5-7.8,20.2-11.7c2-1.2,4.5-1.2,6.5,0l10,5.7c0.4,0.3,0.5,0.8,0.3,1.2
	c-0.1,0.1-0.2,0.2-0.3,0.3l-24.4,14.1c-0.6,0.4-1,1-1,1.8v11.8c0,0.7,0.4,1.4,1,1.7l10.2,5.9c0.6,0.4,1.4,0.4,2,0l42.2-24.3
	c7.2-4.1,7.2-16.1,0-20.2L98.1,84.9c-3.2-1.9-7.3-1.9-10.5,0l-37.9,21.8c-3.3,1.9-5.3,5.3-5.3,9.1c0,14.6,0.1,29.2,0,43.8
	c0,3.8,2,7.3,5.3,9.1l37.9,21.9c3.2,1.9,7.2,1.9,10.5,0l37.9-21.9c3.3-1.8,5.3-5.3,5.2-9.1v-19l-45.1,26.1c-2,1.2-4.5,1.2-6.5,0
	L69.5,155c-2-1.1-3.3-3.3-3.3-5.6V126C66.2,123.7,67.4,121.6,69.4,120.5L69.4,120.5z"/>
</svg>
